<svg width="32" height="32" viewBox="0 0 32 32" fill="none" xmlns="http://www.w3.org/2000/svg">
<path d="M27.3137 27.3137C24.2917 30.3357 20.2737 32 16 32C11.7263 32 7.70834 30.3357 4.68628 27.3137C1.66421 24.2917 0 20.2738 0 16C0 11.7262 1.66428 7.70834 4.68628 4.68628C7.70828 1.66421 11.7263 0 16 0C20.2737 0 24.2917 1.66428 27.3137 4.68628C30.3358 7.70827 32 11.7262 32 16C32 20.2738 30.3357 24.2917 27.3137 27.3137ZM29.5872 19.0562L16.3976 22.5365L22.2911 28.4299C23.5752 27.7812 24.7794 26.9221 25.8508 25.8508C27.7859 23.9156 29.031 21.548 29.5872 19.0562ZM20.8359 14.697L17.2959 11.157L12.4588 12.4374L11.1443 17.2832L14.7045 20.8435L19.5371 19.5683L20.8359 14.697ZM20.2118 29.2766L10.52 19.5848L8.33621 27.6354C11.8829 29.9729 16.271 30.5195 20.2118 29.2766ZM6.14924 25.8508C6.28648 25.988 6.42648 26.1208 6.56793 26.2512L10.1492 13.0488L2.10041 15.1794C1.87614 19.0152 3.2251 22.9266 6.14924 25.8508ZM2.40966 12.9573L15.6036 9.46462L9.70903 3.57007C8.4249 4.21876 7.22062 5.07786 6.14924 6.14924C4.21062 8.08786 2.96441 10.4606 2.40966 12.9573ZM11.7883 2.72345L21.4519 12.387L23.6014 4.32462C20.0657 2.02152 15.7061 1.48786 11.7883 2.72345ZM25.8508 6.14924C25.6956 5.99407 25.5372 5.84386 25.3766 5.69752L21.8404 18.9606L29.8988 16.8342C30.127 12.9941 28.7784 9.0769 25.8508 6.14924Z" fill="#484848"/>
</svg>
