<svg width="14" height="14" viewBox="0 0 14 14" fill="none" xmlns="http://www.w3.org/2000/svg">
<path d="M7 0C3.14007 0 0 3.14007 0 7C0 10.8599 3.14007 14 7 14C10.8599 14 14 10.8599 14 7C14 3.14007 10.8599 0 7 0ZM9.16243 7.41243L6.24575 10.3291C6.132 10.4428 5.98268 10.5 5.83332 10.5C5.684 10.5 5.53465 10.4428 5.4209 10.3291C5.19282 10.101 5.19282 9.73232 5.4209 9.50425L7.92518 7L5.42093 4.49575C5.19285 4.26768 5.19285 3.899 5.42093 3.67093C5.649 3.44285 6.01768 3.44285 6.24575 3.67093L9.16243 6.5876C9.3905 6.81568 9.3905 7.18432 9.16243 7.41243Z" fill="#0082ED"/>
</svg>
