<svg width="134" height="107" viewBox="0 0 134 107" fill="none" xmlns="http://www.w3.org/2000/svg">
<path d="M17.396 0.787421C16.55 0.807925 15.7287 1.07709 15.0347 1.56133C14.3407 2.04556 13.8046 2.72344 13.4934 3.51038C13.1822 4.29732 13.1096 5.15849 13.2846 5.98644C13.4597 6.81438 13.8746 7.57246 14.4777 8.16608C15.0809 8.7597 15.8454 9.16259 16.6761 9.32448C17.5067 9.48636 18.3666 9.40009 19.1485 9.07641C19.9304 8.75272 20.5997 8.20597 21.0728 7.50436C21.546 6.80275 21.8021 5.97734 21.8092 5.13112C21.8092 4.5548 21.6946 3.98423 21.472 3.45265C21.2494 2.92106 20.9232 2.4391 20.5124 2.03483C20.1017 1.63056 19.6146 1.31206 19.0796 1.0979C18.5445 0.883742 17.9722 0.7782 17.396 0.787421Z" fill="white"/>
<path d="M98.9217 11.525C98.1932 11.525 97.4811 11.7411 96.8753 12.1458C96.2696 12.5505 95.7975 13.1258 95.5187 13.7989C95.2399 14.4719 95.1669 15.2126 95.3091 15.9271C95.4512 16.6416 95.802 17.2979 96.3171 17.8131C96.8323 18.3282 97.4886 18.679 98.2031 18.8212C98.9177 18.9633 99.6583 18.8903 100.331 18.6116C101.004 18.3328 101.58 17.8606 101.984 17.2549C102.389 16.6492 102.605 15.937 102.605 15.2085C102.605 14.7248 102.51 14.2458 102.325 13.7989C102.14 13.352 101.868 12.9459 101.526 12.6039C101.184 12.2618 100.778 11.9905 100.331 11.8054C99.8844 11.6203 99.4055 11.525 98.9217 11.525Z" fill="white"/>
<path d="M43.2171 99.9628C42.5299 99.9628 41.858 100.167 41.2866 100.548C40.7151 100.93 40.2697 101.473 40.0067 102.108C39.7437 102.743 39.6749 103.442 39.809 104.116C39.943 104.79 40.274 105.409 40.76 105.895C41.246 106.381 41.8651 106.712 42.5392 106.846C43.2133 106.98 43.912 106.911 44.547 106.648C45.1819 106.385 45.7246 105.94 46.1065 105.368C46.4883 104.797 46.6921 104.125 46.6921 103.438C46.6921 102.516 46.326 101.632 45.6743 100.981C45.0226 100.329 44.1388 99.9628 43.2171 99.9628Z" fill="white"/>
<path d="M105.976 92.8391C105.578 92.8391 105.188 92.9573 104.857 93.1788C104.525 93.4002 104.267 93.715 104.114 94.0833C103.962 94.4516 103.922 94.8568 104 95.2478C104.077 95.6387 104.269 95.9979 104.551 96.2797C104.833 96.5616 105.192 96.7536 105.583 96.8313C105.974 96.9091 106.379 96.8692 106.748 96.7166C107.116 96.5641 107.431 96.3058 107.652 95.9743C107.874 95.6429 107.992 95.2532 107.992 94.8546C107.992 94.32 107.78 93.8074 107.402 93.4294C107.024 93.0514 106.511 92.8391 105.976 92.8391Z" fill="white"/>
<path d="M66.9897 66.0819C70.6761 66.0819 74.2116 64.6175 76.8184 62.0108C79.4251 59.404 80.8895 55.8686 80.8895 52.1821V31.3323C80.8895 27.6459 79.4251 24.1104 76.8184 21.5037C74.2116 18.8969 70.6761 17.4325 66.9897 17.4325C63.3032 17.4325 59.7677 18.8969 57.161 21.5037C54.5543 24.1104 53.0898 27.6459 53.0898 31.3323V52.1821C53.0898 55.8686 54.5543 59.404 57.161 62.0108C59.7677 64.6175 63.3032 66.0819 66.9897 66.0819ZM60.0398 31.3323C60.0398 29.4891 60.772 27.7214 62.0753 26.418C63.3787 25.1146 65.1465 24.3824 66.9897 24.3824C68.8329 24.3824 70.6007 25.1146 71.904 26.418C73.2074 27.7214 73.9396 29.4891 73.9396 31.3323V52.1821C73.9396 54.0253 73.2074 55.7931 71.904 57.0964C70.6007 58.3998 68.8329 59.132 66.9897 59.132C65.1465 59.132 63.3787 58.3998 62.0753 57.0964C60.772 55.7931 60.0398 54.0253 60.0398 52.1821V31.3323Z" fill="white"/>
<path d="M85.4354 63.024C85.0295 62.8133 84.5859 62.6847 84.1301 62.6457C83.6744 62.6068 83.2154 62.6582 82.7795 62.797C82.3437 62.9358 81.9396 63.1594 81.5903 63.4547C81.241 63.7501 80.9535 64.1115 80.7442 64.5183C79.4551 67.0606 77.4868 69.1962 75.0578 70.688C72.6287 72.1797 69.8339 72.9694 66.9834 72.9694C64.1328 72.9694 61.338 72.1797 58.909 70.688C56.48 69.1962 54.5117 67.0606 53.2225 64.5183C52.7986 63.698 52.0662 63.0798 51.1864 62.7996C50.3066 62.5193 49.3516 62.6001 48.5313 63.024C47.7111 63.448 47.0929 64.1804 46.8126 65.0602C46.5324 65.9399 46.6132 66.895 47.0371 67.7152C48.6465 70.8613 50.9781 73.5816 53.841 75.6533C56.704 77.725 60.0168 79.0892 63.5084 79.6343V90.233C63.5084 91.1546 63.8745 92.0384 64.5262 92.6901C65.1779 93.3418 66.0618 93.7079 66.9834 93.7079C67.905 93.7079 68.7889 93.3418 69.4406 92.6901C70.0922 92.0384 70.4583 91.1546 70.4583 90.233V79.6343C73.9542 79.0883 77.2704 77.7198 80.134 75.6416C82.9976 73.5634 85.3267 70.8348 86.9297 67.6805C87.3444 66.864 87.4201 65.9169 87.1403 65.0449C86.8605 64.173 86.2478 63.4467 85.4354 63.024Z" fill="white"/>
<path d="M25.2796 30.9848C24.358 30.9848 23.4742 31.3509 22.8225 32.0026C22.1708 32.6543 21.8047 33.5381 21.8047 34.4598V76.7153C21.8047 77.6369 22.1708 78.5208 22.8225 79.1724C23.4742 79.8241 24.358 80.1902 25.2796 80.1902C26.2013 80.1902 27.0851 79.8241 27.7368 79.1724C28.3885 78.5208 28.7546 77.6369 28.7546 76.7153V34.4598C28.7546 33.5381 28.3885 32.6543 27.7368 32.0026C27.0851 31.3509 26.2013 30.9848 25.2796 30.9848Z" fill="white"/>
<path d="M4.4359 39.8807C3.51428 39.8807 2.63041 40.2468 1.97873 40.8985C1.32705 41.5502 0.960938 42.4341 0.960938 43.3557V67.6804C0.960938 68.602 1.32705 69.4859 1.97873 70.1376C2.63041 70.7893 3.51428 71.1554 4.4359 71.1554C5.35751 71.1554 6.24138 70.7893 6.89306 70.1376C7.54475 69.4859 7.91086 68.602 7.91086 67.6804V43.3557C7.91086 42.4341 7.54475 41.5502 6.89306 40.8985C6.24138 40.2468 5.35751 39.8807 4.4359 39.8807Z" fill="white"/>
<path d="M35.7132 38.2822C34.7916 38.2822 33.9078 38.6483 33.2561 39.3C32.6044 39.9516 32.2383 40.8355 32.2383 41.7571V69.5568C32.2383 70.4784 32.6044 71.3623 33.2561 72.014C33.9078 72.6657 34.7916 73.0318 35.7132 73.0318C36.6349 73.0318 37.5187 72.6657 38.1704 72.014C38.8221 71.3623 39.1882 70.4784 39.1882 69.5568V41.7571C39.1882 40.8355 38.8221 39.9516 38.1704 39.3C37.5187 38.6483 36.6349 38.2822 35.7132 38.2822Z" fill="white"/>
<path d="M14.8695 45.2321C13.9479 45.2321 13.064 45.5982 12.4123 46.2499C11.7606 46.9016 11.3945 47.7855 11.3945 48.7071V62.4332C11.3945 63.3548 11.7606 64.2387 12.4123 64.8903C13.064 65.542 13.9479 65.9081 14.8695 65.9081C15.7911 65.9081 16.675 65.542 17.3267 64.8903C17.9783 64.2387 18.3445 63.3548 18.3445 62.4332V48.7071C18.3445 47.7855 17.9783 46.9016 17.3267 46.2499C16.675 45.5982 15.7911 45.2321 14.8695 45.2321Z" fill="white"/>
<path d="M119.108 30.9848C118.186 30.9848 117.302 31.3509 116.651 32.0026C115.999 32.6543 115.633 33.5381 115.633 34.4598V76.7153C115.633 77.6369 115.999 78.5208 116.651 79.1724C117.302 79.8241 118.186 80.1902 119.108 80.1902C120.029 80.1902 120.913 79.8241 121.565 79.1724C122.217 78.5208 122.583 77.6369 122.583 76.7153V34.4598C122.583 33.5381 122.217 32.6543 121.565 32.0026C120.913 31.3509 120.029 30.9848 119.108 30.9848Z" fill="white"/>
<path d="M98.264 39.8807C97.3424 39.8807 96.4585 40.2468 95.8069 40.8985C95.1552 41.5502 94.7891 42.4341 94.7891 43.3557V67.6804C94.7891 68.602 95.1552 69.4859 95.8069 70.1376C96.4585 70.7893 97.3424 71.1554 98.264 71.1554C99.1856 71.1554 100.07 70.7893 100.721 70.1376C101.373 69.4859 101.739 68.602 101.739 67.6804V43.3557C101.739 42.4341 101.373 41.5502 100.721 40.8985C100.07 40.2468 99.1856 39.8807 98.264 39.8807Z" fill="white"/>
<path d="M129.537 38.2822C128.616 38.2822 127.732 38.6483 127.08 39.3C126.429 39.9516 126.062 40.8355 126.062 41.7571V69.5568C126.062 70.4784 126.429 71.3623 127.08 72.014C127.732 72.6657 128.616 73.0318 129.537 73.0318C130.459 73.0318 131.343 72.6657 131.995 72.014C132.646 71.3623 133.012 70.4784 133.012 69.5568V41.7571C133.012 40.8355 132.646 39.9516 131.995 39.3C131.343 38.6483 130.459 38.2822 129.537 38.2822Z" fill="white"/>
<path d="M108.682 45.2321C107.76 45.2321 106.877 45.5982 106.225 46.2499C105.573 46.9016 105.207 47.7855 105.207 48.7071V62.4332C105.207 63.3548 105.573 64.2387 106.225 64.8903C106.877 65.542 107.76 65.9081 108.682 65.9081C109.604 65.9081 110.487 65.542 111.139 64.8903C111.791 64.2387 112.157 63.3548 112.157 62.4332V48.7071C112.157 47.7855 111.791 46.9016 111.139 46.2499C110.487 45.5982 109.604 45.2321 108.682 45.2321Z" fill="white"/>
</svg>
