<?xml version="1.0" encoding="utf-8"?>
<!-- Generator: Adobe Illustrator 24.0.1, SVG Export Plug-In . SVG Version: 6.00 Build 0)  -->
<svg version="1.1" id="Layer_1" xmlns="http://www.w3.org/2000/svg" xmlns:xlink="http://www.w3.org/1999/xlink" x="0px" y="0px"
	 viewBox="0 0 507 851" style="enable-background:new 0 0 507 851;" xml:space="preserve">
<style type="text/css">
	.st0{fill:url(#SVGID_1_);}
	.st1{fill:url(#SVGID_2_);}
	.st2{clip-path:url(#SVGID_4_);}
	.st3{fill:#00A3FF;}
</style>
<g>
	
		<linearGradient id="SVGID_1_" gradientUnits="userSpaceOnUse" x1="10.577" y1="577.0951" x2="248.41" y2="577.0951" gradientTransform="matrix(1 0 0 -1 0 994.0951)">
		<stop  offset="0.507" style="stop-color:#0083EF"/>
		<stop  offset="1" style="stop-color:#008AFB"/>
	</linearGradient>
	<path class="st0" d="M19,220C19,98.5,117.5,0,239,0v734c0,55.2-44.8,100-100,100H19V220z"/>
	
		<linearGradient id="SVGID_2_" gradientUnits="userSpaceOnUse" x1="515.5" y1="474.5951" x2="275.5" y2="474.5951" gradientTransform="matrix(1 0 0 -1 0 994.0951)">
		<stop  offset="0.507" style="stop-color:#0083EF"/>
		<stop  offset="1" style="stop-color:#008AFB"/>
	</linearGradient>
	<path class="st1" d="M507,427c0-122.6-99.4-222-222-222v529c0,55.2,44.8,100,100,100h122V427z"/>
	<g>
		<defs>
			<rect id="SVGID_3_" y="835" width="16" height="16"/>
		</defs>
		<clipPath id="SVGID_4_">
			<use xlink:href="#SVGID_3_"  style="overflow:visible;"/>
		</clipPath>
		<g class="st2">
			<path class="st3" d="M9.9,850.8c1.5-0.4,2.9-1.2,4-2.4c1.1-1.2,1.8-2.6,2-4.2c0.2-1.6,0-3.2-0.7-4.6c-0.7-1.4-1.8-2.6-3.1-3.5
				c-1.4-0.8-2.9-1.2-4.5-1.1c-1.6,0.1-3.1,0.6-4.4,1.6c-1.3,0.9-2.2,2.2-2.8,3.7c-0.5,1.5-0.6,3.1-0.2,4.6c0.3,1,0.7,2,1.3,2.8
				c0.6,0.8,1.4,1.6,2.3,2.1c0.9,0.5,1.9,0.9,2.9,1.1C7.9,851.1,8.9,851,9.9,850.8z"/>
		</g>
	</g>
</g>
</svg>
