<?xml version="1.0" encoding="utf-8"?>
<!-- Generator: Adobe Illustrator 24.0.1, SVG Export Plug-In . SVG Version: 6.00 Build 0)  -->
<svg version="1.1" id="Layer_1" xmlns="http://www.w3.org/2000/svg" xmlns:xlink="http://www.w3.org/1999/xlink" x="0px" y="0px"
	 viewBox="0 0 512 450" style="enable-background:new 0 0 512 450; fill:#8a8989" xml:space="preserve">
<g>
	<path d="M303.4,30.4C271.6,10.8,233.9,0,195,0C89.1,0,0,78.9,0,180c0,35.4,11,69.4,31.9,98.7L2.7,370.4C-0.4,380.1,6.9,390,17,390
		c2.3,0,4.6-0.5,6.8-1.6l88.8-45.2c3.6,1.5,7.2,3,10.9,4.3C103,315.4,92,278.6,92,240C92,125.1,188.7,36.8,303.4,30.4z"/>
	<path d="M480.1,338.7C501,309.4,512,275.4,512,240c0-101.1-89.1-180-195-180c-105.9,0-195,78.9-195,180c0,101.1,89.1,180,195,180
		c28.4,0,56.7-5.8,82.4-16.8l88.8,45.2c5.4,2.7,11.9,2,16.5-1.9s6.4-10.2,4.6-16L480.1,338.7z M256,255c-8.3,0-15-6.7-15-15
		s6.7-15,15-15s15,6.7,15,15S264.3,255,256,255z M316,255c-8.3,0-15-6.7-15-15s6.7-15,15-15s15,6.7,15,15S324.3,255,316,255z
		 M376,255c-8.3,0-15-6.7-15-15s6.7-15,15-15s15,6.7,15,15S384.3,255,376,255z"/>
</g>
</svg>
