<svg width="34" height="34" viewBox="0 0 34 34" fill="none" xmlns="http://www.w3.org/2000/svg">
<path d="M17.0001 0C13.6378 0 10.351 0.997038 7.55535 2.86503C4.7597 4.73303 2.58076 7.38808 1.29406 10.4944C0.00736583 13.6008 -0.329293 17.0189 0.32666 20.3166C0.982612 23.6143 2.60171 26.6435 4.97922 29.021C7.35672 31.3985 10.3858 33.0176 13.6835 33.6735C16.9812 34.3295 20.3994 33.9928 23.5057 32.7061C26.6121 31.4194 29.2672 29.2405 31.1351 26.4448C33.0031 23.6492 34.0002 20.3624 34.0002 17.0001C34.0002 12.4914 32.2091 8.16735 29.021 4.97921C25.8328 1.79108 21.5088 0 17.0001 0V0ZM21.8362 11.0635C21.8362 11.3833 21.702 11.5108 21.3888 11.5108C20.7871 11.5108 20.1854 11.5108 19.5859 11.5355C18.9864 11.5601 18.6598 11.833 18.6598 12.4593C18.6464 13.1303 18.6598 13.788 18.6598 14.4724H21.2345C21.6013 14.4724 21.7266 14.5977 21.7266 14.9668C21.7266 15.8615 21.7266 16.7607 21.7266 17.6644C21.7266 18.029 21.6102 18.1431 21.2412 18.1454H18.6375V25.4241C18.6375 25.8133 18.5167 25.9363 18.1319 25.9363H15.3314C14.9936 25.9363 14.8617 25.8043 14.8617 25.4666V18.1565H12.6382C12.2893 18.1565 12.164 18.029 12.164 17.6779C12.164 16.7727 12.164 15.8682 12.164 14.9646C12.164 14.6156 12.296 14.4836 12.6405 14.4836H14.8617V12.5264C14.8353 11.6472 15.0462 10.7772 15.4723 10.0077C15.9153 9.23084 16.625 8.6411 17.4698 8.34794C18.0181 8.14844 18.5976 8.04845 19.181 8.05267H21.3799C21.6952 8.05267 21.8272 8.19136 21.8272 8.50004C21.8384 9.36123 21.8384 10.2135 21.8362 11.0635Z" fill="url(#paint0_linear_1_1323)"/>
<defs>
<linearGradient id="paint0_linear_1_1323" x1="-1.30181" y1="19.6497" x2="35.4551" y2="19.6497" gradientUnits="userSpaceOnUse">
<stop offset="0.507" stop-color="#0083EF"/>
<stop offset="1" stop-color="#008AFB"/>
</linearGradient>
</defs>
</svg>
