<svg width="34" height="34" viewBox="0 0 34 34" fill="none" xmlns="http://www.w3.org/2000/svg">
<path d="M31.7905 24.5952C31.1235 24.5952 30.5808 25.1379 30.5808 25.805V30.1614C30.5808 30.3923 30.3929 30.5802 30.162 30.5802H25.8054C25.1384 30.5802 24.5957 31.1229 24.5957 31.79C24.5957 32.4572 25.1384 32.9998 25.8054 32.9998H30.162C31.727 32.9998 33.0003 31.7266 33.0003 30.1614V25.8051C33.0003 25.1379 32.4575 24.5952 31.7905 24.5952ZM32.7522 30.1614C32.7522 31.5896 31.5903 32.7517 30.162 32.7517H25.8054C25.2751 32.7517 24.8438 32.3202 24.8438 31.79C24.8438 31.2597 25.2751 30.8282 25.8054 30.8282H30.162C30.5297 30.8282 30.8289 30.529 30.8289 30.1613V25.805C30.8289 25.2747 31.2602 24.8432 31.7905 24.8432C32.3208 24.8432 32.7522 25.2747 32.7522 25.805V30.1614Z" fill="#484848" stroke="#484848" stroke-width="0.5"/>
<path d="M30.162 1H25.8054C25.1384 1 24.5957 1.54265 24.5957 2.20981C24.5957 2.87697 25.1384 3.41962 25.8054 3.41962H30.162C30.393 3.41962 30.5808 3.60763 30.5808 3.83846V8.1948C30.5808 8.86196 31.1235 9.40461 31.7905 9.40461C32.4575 9.40461 33.0003 8.86196 33.0003 8.1948V3.83839C33.0003 2.27325 31.727 1 30.162 1ZM32.7522 8.19474C32.7522 8.72502 32.3207 9.15648 31.7904 9.15648C31.2602 9.15648 30.8288 8.72502 30.8288 8.19474V3.83839C30.8288 3.47069 30.5296 3.17149 30.1619 3.17149H25.8053C25.275 3.17149 24.8437 2.74003 24.8437 2.20975C24.8437 1.67947 25.275 1.24801 25.8053 1.24801H30.1619C31.5902 1.24801 32.7522 2.41007 32.7522 3.83833V8.19474Z" fill="#484848" stroke="#484848" stroke-width="0.5"/>
<path d="M8.19493 30.5802H3.83833C3.60732 30.5802 3.4195 30.3922 3.4195 30.1614V25.805C3.4195 25.1379 2.87685 24.5952 2.20981 24.5952C1.54278 24.5952 1 25.1379 1 25.805V30.1614C1 31.7265 2.27325 32.9998 3.83827 32.9998H8.19487C8.8619 32.9998 9.40455 32.4571 9.40455 31.79C9.40455 31.1228 8.86196 30.5802 8.19493 30.5802ZM8.19493 32.7517H3.83833C2.41007 32.7517 1.24808 31.5896 1.24808 30.1614V25.805C1.24808 25.2748 1.67953 24.8433 2.20981 24.8433C2.74009 24.8433 3.17142 25.2748 3.17142 25.805V30.1614C3.17142 30.5291 3.47063 30.8283 3.83833 30.8283H8.19493C8.7252 30.8283 9.15654 31.2597 9.15654 31.79C9.15654 32.3203 8.7252 32.7517 8.19493 32.7517Z" fill="#484848" stroke="#484848" stroke-width="0.5"/>
<path d="M2.20981 9.40461C2.87685 9.40461 3.4195 8.86196 3.4195 8.1948V3.83846C3.4195 3.60757 3.60738 3.41962 3.83833 3.41962H8.19493C8.86196 3.41962 9.40461 2.87697 9.40461 2.20981C9.40461 1.54265 8.86196 1 8.19493 1H3.83827C2.27325 1 1 2.27325 1 3.83839V8.19474C1 8.86196 1.54278 9.40461 2.20981 9.40461ZM1.24808 3.83846C1.24808 2.4102 2.41001 1.24814 3.83833 1.24814H8.19493C8.7252 1.24814 9.15654 1.6796 9.15654 2.20987C9.15654 2.74015 8.7252 3.17161 8.19493 3.17161H3.83827C3.47056 3.17161 3.17136 3.47081 3.17136 3.83852V8.19487C3.17136 8.72514 2.74003 9.1566 2.20975 9.1566C1.67947 9.1566 1.24801 8.72514 1.24801 8.19487V3.83846H1.24808Z" fill="#484848" stroke="#484848" stroke-width="0.5"/>
<path d="M16.5098 27.9592C10.8852 27.7136 6.28668 23.1152 6.04092 17.4908C6.03792 17.4222 5.98304 17.3759 5.91154 17.3721C5.8431 17.3752 5.79003 17.4331 5.79309 17.5015C6.04442 23.2536 10.7469 27.9559 16.4988 28.2073H16.5044C16.5704 28.2073 16.6253 28.1552 16.6282 28.0886C16.6312 28.0203 16.5782 27.9624 16.5098 27.9592Z" fill="#484848" stroke="#484848" stroke-width="0.5"/>
<path d="M16.5103 25.9724C11.9201 25.7262 8.27319 22.0795 8.0273 17.4894C8.02355 17.4211 7.96223 17.3655 7.89673 17.3721C7.82829 17.3757 7.77585 17.4341 7.77947 17.5024C8.03224 22.2195 11.7801 25.9673 16.497 26.2199C16.4993 26.2202 16.5015 26.2202 16.5038 26.2202C16.5692 26.2202 16.6239 26.1688 16.6276 26.1027C16.6312 26.0344 16.5787 25.976 16.5103 25.9724Z" fill="#484848" stroke="#484848" stroke-width="0.5"/>
<path d="M17.4917 6.04058C23.1163 6.28622 27.7147 10.8846 27.9605 16.5091C27.9634 16.5757 28.0183 16.6277 28.0843 16.6277H28.0898C28.1583 16.6246 28.2113 16.5667 28.2083 16.4984C27.957 10.7464 23.2545 6.04396 17.5025 5.79251C17.4335 5.79107 17.3762 5.84289 17.3732 5.9112C17.3702 5.97952 17.4232 6.0374 17.4917 6.04058Z" fill="#484848" stroke="#484848" stroke-width="0.5"/>
<path d="M16.6275 7.89718C16.6237 7.82887 16.5647 7.77268 16.497 7.77993C11.7801 8.03257 8.03224 11.7804 7.77947 16.4974C7.77585 16.5657 7.82829 16.6241 7.89673 16.6278C7.89904 16.628 7.90123 16.628 7.90354 16.628C7.96892 16.628 8.02367 16.5766 8.02736 16.5105C8.27325 11.9204 11.9201 8.27364 16.5104 8.0275C16.5787 8.02388 16.6312 7.9655 16.6275 7.89718Z" fill="#484848" stroke="#484848" stroke-width="0.5"/>
<path d="M17.4905 8.02744C22.0807 8.27357 25.7276 11.9203 25.9735 16.5104C25.9771 16.5766 26.0319 16.6279 26.0972 16.6279C26.0995 16.6279 26.1017 16.6279 26.104 16.6277C26.1725 16.6241 26.2249 16.5657 26.2213 16.4974C25.9685 11.7803 22.2207 8.0325 17.5038 7.77986C17.436 7.77305 17.377 7.8288 17.3732 7.89712C17.3696 7.96543 17.422 8.02381 17.4905 8.02744Z" fill="#484848" stroke="#484848" stroke-width="0.5"/>
<path d="M5.79309 16.4984C5.79009 16.5667 5.84309 16.6246 5.91153 16.6278H5.9171C5.9831 16.6278 6.03798 16.5757 6.04091 16.5091C6.28668 10.8845 10.8851 6.28625 16.5098 6.04061C16.5782 6.03748 16.6313 5.97954 16.6282 5.91123C16.6253 5.84291 16.5735 5.79059 16.4988 5.79253C10.7469 6.04398 6.04442 10.7462 5.79309 16.4984Z" fill="#484848" stroke="#484848" stroke-width="0.5"/>
<path d="M28.2083 17.5015C28.2113 17.4331 28.1583 17.3753 28.0898 17.3721C28.0195 17.3764 27.9635 17.4222 27.9605 17.4908C27.7147 23.1152 23.1162 27.7136 17.4916 27.9592C17.4232 27.9624 17.3701 28.0203 17.3732 28.0886C17.3761 28.1552 17.4309 28.2073 17.4969 28.2073H17.5025C23.2545 27.9559 27.957 23.2534 28.2083 17.5015Z" fill="#484848" stroke="#484848" stroke-width="0.5"/>
<path d="M17.3732 26.1031C17.3768 26.1692 17.4316 26.2206 17.497 26.2206C17.4993 26.2206 17.5015 26.2206 17.5038 26.2204C22.2207 25.9677 25.9685 22.2199 26.2213 17.5028C26.2249 17.4345 26.1725 17.3762 26.104 17.3725C26.0349 17.3665 25.9772 17.4215 25.9735 17.4898C25.7276 22.0799 22.0807 25.7266 17.4905 25.9728C17.422 25.9764 17.3696 26.0348 17.3732 26.1031Z" fill="#484848" stroke="#484848" stroke-width="0.5"/>
<path d="M24.1077 16.6279C24.1106 16.6279 24.1134 16.6279 24.1164 16.6277C24.1847 16.6231 24.2362 16.5638 24.2317 16.4954C23.9874 12.9056 21.0956 10.0139 17.5056 9.76923C17.4365 9.7656 17.378 9.81648 17.3733 9.88454C17.3687 9.95286 17.4203 10.0122 17.4887 10.0168C20.9558 10.253 23.7483 13.0454 23.9842 16.5124C23.9885 16.5778 24.043 16.6279 24.1077 16.6279Z" fill="#484848" stroke="#484848" stroke-width="0.5"/>
<path d="M9.88502 16.6277C9.88796 16.6279 9.89083 16.6279 9.89365 16.6279C9.95834 16.6279 10.0128 16.5778 10.0173 16.5124C10.2532 13.0453 13.0457 10.2529 16.5129 10.0167C16.5812 10.0121 16.6328 9.9528 16.6282 9.88448C16.6236 9.81641 16.5685 9.76629 16.4959 9.76916C12.9058 10.0139 10.0141 12.9055 9.76983 16.4954C9.76514 16.5638 9.8167 16.6231 9.88502 16.6277Z" fill="#484848" stroke="#484848" stroke-width="0.5"/>
<path d="M21.995 16.5155C22.001 16.5797 22.055 16.6276 22.1183 16.6276C22.1222 16.6276 22.1262 16.6274 22.1302 16.6271C22.1984 16.6206 22.2484 16.56 22.2419 16.4917C22.0028 13.9883 20.0123 11.9978 17.5088 11.7586C17.4405 11.7538 17.3801 11.8023 17.3736 11.8703C17.3671 11.9386 17.4171 11.9992 17.4853 12.0058C19.8704 12.2335 21.767 14.1301 21.995 16.5155Z" fill="#484848" stroke="#484848" stroke-width="0.5"/>
<path d="M9.88514 17.3722C9.81682 17.3768 9.76519 17.4361 9.76982 17.5044C10.0141 21.0943 12.9059 23.986 16.4959 24.2307C16.5607 24.236 16.6234 24.186 16.6282 24.1153C16.6328 24.047 16.5812 23.9876 16.5128 23.9831C13.0457 23.7469 10.2532 20.9545 10.0173 17.4874C10.0128 17.4194 9.95689 17.3693 9.88514 17.3722Z" fill="#484848" stroke="#484848" stroke-width="0.5"/>
<path d="M11.872 16.6276C11.876 16.6279 11.88 16.6281 11.8839 16.6281C11.9472 16.6281 12.0012 16.5802 12.0072 16.516C12.2352 14.1306 14.1317 12.234 16.5169 12.0063C16.5851 11.9998 16.6351 11.9392 16.6286 11.8709C16.6222 11.8028 16.5618 11.7539 16.4934 11.7592C13.99 11.9983 11.9995 13.9888 11.7603 16.4922C11.7538 16.5605 11.8038 16.6211 11.872 16.6276Z" fill="#484848" stroke="#484848" stroke-width="0.5"/>
<path d="M22.1302 17.3727C22.0622 17.3698 22.0014 17.4163 21.995 17.4844C21.767 19.8698 19.8705 21.7664 17.4853 21.994C17.4171 22.0006 17.3671 22.0612 17.3736 22.1295C17.3795 22.1919 17.4322 22.2458 17.5088 22.2412C20.0122 22.0021 22.0027 20.0116 22.2419 17.5081C22.2484 17.4398 22.1984 17.3793 22.1302 17.3727Z" fill="#484848" stroke="#484848" stroke-width="0.5"/>
<path d="M12.0072 17.4844C12.0008 17.4164 11.9402 17.3694 11.872 17.3727C11.8038 17.3793 11.7538 17.4399 11.7603 17.5082C11.9994 20.0116 13.9899 22.0021 16.4934 22.2412C16.5695 22.2459 16.6226 22.1923 16.6286 22.1295C16.6351 22.0612 16.5851 22.0007 16.5169 21.9941C14.1318 21.7664 12.2352 19.8698 12.0072 17.4844Z" fill="#484848" stroke="#484848" stroke-width="0.5"/>
<path d="M24.1164 17.3723C24.0453 17.3684 23.9889 17.4195 23.9842 17.4876C23.7483 20.9546 20.9558 23.747 17.4887 23.9832C17.4203 23.9879 17.3687 24.0472 17.3733 24.1155C17.3781 24.1861 17.4408 24.2362 17.5056 24.2308C21.0957 23.9861 23.9874 21.0945 24.2317 17.5046C24.2363 17.4362 24.1847 17.3769 24.1164 17.3723Z" fill="#484848" stroke="#484848" stroke-width="0.5"/>
<path d="M17.3745 13.8627C17.364 13.9302 17.4103 13.9937 17.4779 14.0044C18.7599 14.2054 19.7955 15.2413 19.9965 16.523C20.0062 16.5843 20.0589 16.6279 20.1189 16.6279C20.1252 16.6279 20.1317 16.6274 20.1383 16.6264C20.2059 16.6157 20.2522 16.5523 20.2416 16.4847C20.0242 15.0976 18.9034 13.977 17.5164 13.7592C17.4484 13.749 17.3854 13.7949 17.3745 13.8627Z" fill="#484848" stroke="#484848" stroke-width="0.5"/>
<path d="M16.5554 17.9489C16.3322 17.8471 16.1531 17.6681 16.0514 17.4448C16.0228 17.3823 15.9488 17.3549 15.8871 17.3833C15.8248 17.4116 15.7973 17.4853 15.8256 17.5475C15.9522 17.8254 16.175 18.0482 16.4527 18.1747C16.5157 18.2032 16.5888 18.1749 16.6169 18.1132C16.6453 18.0509 16.6178 17.9772 16.5554 17.9489Z" fill="#484848" stroke="#484848" stroke-width="0.5"/>
<path d="M16.6264 20.1371C16.637 20.0696 16.5906 20.0061 16.5231 19.9954C15.241 19.7944 14.2054 18.7585 14.0045 17.4768C13.9938 17.4092 13.9323 17.3637 13.8626 17.3734C13.7951 17.3841 13.7488 17.4475 13.7593 17.5151C13.9767 18.9022 15.0975 20.0228 16.4846 20.2406C16.5547 20.251 16.616 20.2031 16.6264 20.1371Z" fill="#484848" stroke="#484848" stroke-width="0.5"/>
<path d="M18.114 17.3832C18.052 17.355 17.9781 17.3822 17.9498 17.4447C17.848 17.668 17.669 17.8471 17.4457 17.9488C17.3833 17.9771 17.3558 18.0508 17.3842 18.113C17.4124 18.1748 17.4854 18.2031 17.5485 18.1745C17.8262 18.0481 18.0489 17.8252 18.1755 17.5474C18.2039 17.4852 18.1764 17.4115 18.114 17.3832Z" fill="#484848" stroke="#484848" stroke-width="0.5"/>
<path d="M20.1383 17.3734C20.0705 17.3637 20.0071 17.409 19.9965 17.4768C19.7955 18.7586 18.7599 19.7944 17.4779 19.9954C17.4103 20.0061 17.364 20.0696 17.3745 20.1371C17.385 20.2031 17.4462 20.251 17.5164 20.2406C18.9035 20.0228 20.0242 18.9021 20.2416 17.5151C20.2522 17.4475 20.2059 17.3841 20.1383 17.3734Z" fill="#484848" stroke="#484848" stroke-width="0.5"/>
<path d="M13.8626 16.6265C13.8692 16.6275 13.8756 16.6279 13.882 16.6279C13.9421 16.6279 13.9948 16.5843 14.0045 16.5231C14.2054 15.2413 15.241 14.2055 16.5231 14.0044C16.5906 13.9937 16.637 13.9303 16.6264 13.8627C16.6156 13.7949 16.5512 13.7488 16.4846 13.7593C15.0974 13.977 13.9767 15.0977 13.7593 16.4848C13.7488 16.5524 13.7951 16.6158 13.8626 16.6265Z" fill="#484848" stroke="#484848" stroke-width="0.5"/>
<path d="M15.8871 16.6167C15.9502 16.6452 16.0233 16.6169 16.0514 16.5552C16.1531 16.3318 16.3322 16.1528 16.5554 16.0511C16.6178 16.0228 16.6453 15.9491 16.6169 15.8868C16.5885 15.8241 16.5145 15.7967 16.4527 15.8253C16.1749 15.9518 15.9522 16.1746 15.8256 16.4525C15.7973 16.5147 15.8248 16.5883 15.8871 16.6167Z" fill="#484848" stroke="#484848" stroke-width="0.5"/>
<path d="M17.4457 16.051C17.669 16.1527 17.848 16.3317 17.9498 16.555C17.9779 16.6168 18.0509 16.6451 18.114 16.6166C18.1764 16.5882 18.2039 16.5145 18.1755 16.4523C18.0489 16.1745 17.8262 15.9516 17.5485 15.8251C17.4864 15.7968 17.4126 15.8241 17.3842 15.8866C17.3558 15.949 17.3834 16.0226 17.4457 16.051Z" fill="#484848" stroke="#484848" stroke-width="0.5"/>
<path d="M32.8759 16.8759H17.1239V1.12401C17.1239 1.05544 17.0684 1 16.9999 1C16.9314 1 16.8759 1.0555 16.8759 1.12401V16.8759H1.12401C1.05544 16.8759 1 16.9314 1 16.9999C1 17.0684 1.0555 17.1239 1.12401 17.1239H16.8759V32.8757C16.8759 32.9443 16.9314 32.9998 16.9999 32.9998C17.0684 32.9998 17.1239 32.9442 17.1239 32.8757V17.1239H32.8757C32.9443 17.1239 32.9998 17.0684 32.9998 16.9999C32.9998 16.9314 32.9444 16.8759 32.8759 16.8759Z" fill="#484848" stroke="#484848" stroke-width="0.5"/>
</svg>
