<svg width="36" height="27" viewBox="0 0 36 27" fill="none" xmlns="http://www.w3.org/2000/svg">
<path d="M21.0087 17.5378C20.1131 18.1349 19.0727 18.4506 18.0001 18.4506C16.9275 18.4506 15.8872 18.1349 14.9915 17.5378L0.239696 7.70298C0.157852 7.64841 0.0781176 7.59153 0 7.53303V23.6485C0 25.4962 1.49942 26.9626 3.31405 26.9626H32.686C34.5337 26.9626 36.0001 25.4632 36.0001 23.6485V7.53296C35.9218 7.5916 35.842 7.64862 35.7599 7.70326L21.0087 17.5378Z" fill="white"/>
<path d="M1.40977 5.9479L16.1616 15.7828C16.72 16.1551 17.36 16.3413 18 16.3413C18.6401 16.3413 19.2801 16.1551 19.8386 15.7828L34.5904 5.9479C35.4732 5.35974 36.0002 4.37536 36.0002 3.31293C36.0002 1.48613 34.514 0 32.6872 0H3.31293C1.4862 7.03128e-05 0 1.4862 0 3.31469C0 4.37536 0.527065 5.35974 1.40977 5.9479Z" fill="white"/>
</svg>
