<svg width="34" height="34" viewBox="0 0 34 34" fill="none" xmlns="http://www.w3.org/2000/svg">
<path d="M17 0C13.6377 0 10.3509 0.997029 7.55529 2.86501C4.75966 4.73299 2.58074 7.38801 1.29405 10.4943C0.00736577 13.6007 -0.32929 17.0188 0.326657 20.3165C0.982603 23.6141 2.60169 26.6432 4.97918 29.0207C7.35666 31.3982 10.3858 33.0173 13.6834 33.6732C16.9811 34.3292 20.3992 33.9925 23.5055 32.7058C26.6119 31.4192 29.2669 29.2402 31.1349 26.4446C33.0029 23.649 33.9999 20.3622 33.9999 16.9999C33.9999 12.4913 32.2088 8.16728 29.0207 4.97917C25.8326 1.79106 21.5086 0 17 0V0ZM12.0565 25.9473H8.34788V14.0003H12.0565V25.9473ZM10.2 12.3697C9.77316 12.3715 9.35539 12.2466 8.9995 12.011C8.6436 11.7754 8.36554 11.4396 8.20047 11.046C8.0354 10.6524 7.99073 10.2186 8.0721 9.79965C8.15347 9.38066 8.35724 8.99519 8.65764 8.69198C8.95804 8.38877 9.34159 8.18142 9.7598 8.09614C10.178 8.01087 10.6121 8.0515 11.0073 8.21289C11.4024 8.37428 11.7408 8.6492 11.9797 9.00288C12.2187 9.35657 12.3474 9.77315 12.3496 10.2C12.3508 10.7723 12.1253 11.3218 11.7225 11.7284C11.3197 12.135 10.7723 12.3656 10.2 12.3697ZM25.9473 25.9473H22.2409V20.1315C22.2409 18.7447 22.214 16.9664 20.3127 16.9664C18.4114 16.9664 18.0759 18.474 18.0759 20.0309V25.9473H14.3829V14.0003H17.9417V15.6288H17.9931C18.4874 14.6893 19.6976 13.6984 21.5027 13.6984C25.2561 13.6984 25.9473 16.1723 25.9473 19.3844V25.9473Z" fill="url(#paint0_linear_1_1326)"/>
<defs>
<linearGradient id="paint0_linear_1_1326" x1="-1.3018" y1="19.6495" x2="35.4548" y2="19.6495" gradientUnits="userSpaceOnUse">
<stop offset="0.507" stop-color="#0083EF"/>
<stop offset="1" stop-color="#008AFB"/>
</linearGradient>
</defs>
</svg>
