<svg width="24" height="32" viewBox="0 0 24 32" fill="none" xmlns="http://www.w3.org/2000/svg">
<path d="M12 0C5.384 0 0 5.42133 0 12.0867C0 21.5573 10.872 31.336 11.3347 31.7467C11.5253 31.916 11.7627 32 12 32C12.2373 32 12.4747 31.916 12.6653 31.748C13.128 31.336 24 21.5573 24 12.0867C24 5.42133 18.616 0 12 0ZM12 18.6667C8.324 18.6667 5.33333 15.676 5.33333 12C5.33333 8.324 8.324 5.33333 12 5.33333C15.676 5.33333 18.6667 8.324 18.6667 12C18.6667 15.676 15.676 18.6667 12 18.6667Z" fill="white"/>
</svg>
