<svg width="24" height="32" viewBox="0 0 24 32" fill="none" xmlns="http://www.w3.org/2000/svg">
<path d="M9.5 22.002H14.5C14.7765 22.002 15 21.7785 15 21.502V20.002C15 19.7255 14.7765 19.502 14.5 19.502H9.5C9.2235 19.502 9 19.7255 9 20.002V21.502C9 21.7785 9.2235 22.002 9.5 22.002ZM10 20.502H12.0015H14V21.002H12.5015C12.5015 20.7255 12.278 20.502 12.0015 20.502C11.725 20.502 11.5015 20.7255 11.5015 21.002H10V20.502Z" fill="#484848"/>
<path d="M23.4995 2.499C23.4995 2.2225 23.276 1.999 22.9995 1.999C22.996 1.999 22.993 2.001 22.9895 2.001C22.268 2.004 21.623 2.3185 21.1675 2.8115C20.4985 1.165 18.884 0 16.9995 0H7.0005C5.116 0 3.5015 1.165 2.832 2.8115C2.377 2.3185 1.732 2.004 1.01 2.001C1.0065 2.001 1.0035 1.999 1 1.999C0.7235 1.999 0.5 2.2225 0.5 2.499V10V10.001C0.5 10.001 0.5 10.0015 0.5 10.002C0.5 10.056 0.515 10.1055 0.531 10.1545C0.535 10.1665 0.5335 10.18 0.5385 10.1915C0.565 10.256 0.6045 10.3125 0.653 10.3605L2.5 12.208V17.001V17.0015V17.002C2.5 17.021 2.509 17.0375 2.5105 17.056C2.516 17.1025 2.5205 17.15 2.5385 17.1925C2.5645 17.255 2.6025 17.311 2.65 17.3575L4.0005 18.7125V23.0015V25.5V26.501C4.0005 26.512 4.0065 26.5215 4.007 26.5325C4.0095 26.567 4.018 26.6005 4.028 26.635C4.037 26.6665 4.045 26.696 4.0595 26.7245C4.065 26.7355 4.065 26.7475 4.071 26.758L5.5 29.1385V30.499C5.5 31.3265 6.1735 32 7.0005 32H17.0005C17.004 32 17.007 31.998 17.0105 31.998C17.8335 31.9925 18.5005 31.3225 18.5005 30.499V29.1385L19.9305 26.755C19.9385 26.742 19.9385 26.727 19.945 26.714C19.9555 26.6925 19.961 26.6705 19.9685 26.6475C19.982 26.605 19.9925 26.5635 19.9945 26.5195C19.995 26.5115 19.999 26.5055 19.999 26.4975V25.5V23.0165C19.999 23.011 20.002 23.007 20.002 23.002V18.701L21.3495 17.3575C21.397 17.311 21.435 17.2555 21.461 17.193C21.476 17.157 21.4775 17.1175 21.484 17.0785C21.4885 17.052 21.4995 17.0285 21.4995 17.0015V17.001V17.0005V12.208L23.3495 10.3575C23.397 10.311 23.435 10.2555 23.461 10.1925C23.476 10.1565 23.478 10.116 23.4845 10.077C23.4885 10.0515 23.4995 10.0285 23.4995 10.002V10.0015V10.001V2.499ZM2.5005 4.5C2.5005 4.7765 2.724 5 3.0005 5C3.277 5 3.5005 4.7765 3.5005 4.5C3.5005 2.5705 5.071 1 7.0005 1H16.9995C18.929 1 20.4995 2.5705 20.4995 4.5C20.4995 4.7765 20.723 5 20.9995 5H21C21.2765 5 21.5 4.7765 21.5 4.5C21.5 3.849 21.919 3.2995 22.4995 3.0925V9.502H1.5005V3.0925C2.081 3.2995 2.5005 3.849 2.5005 4.5ZM17.7175 28.5H6.283L5.001 26.3635V26H18.999V26.3645L17.7175 28.5ZM8 29.5H8.5V31H8V29.5ZM9.5 29.5H10V31H9.5V29.5ZM11 29.5H11.5V31H11V29.5ZM12.5 29.5H13V31H12.5V29.5ZM14 29.5H14.5V31H14V29.5ZM15.5 29.5H16V31H15.5V29.5ZM20.4995 13.001H3.5005V12.502L20.4995 12.501V13.001ZM18.5005 16.502V14.001H19.0005V16.502H18.5005ZM17.0005 16.502V14.001H17.5005V16.502H17.0005ZM15.5005 16.502V14.001H16.0005V16.502H15.5005ZM14.0005 16.502V14.001H14.5005V16.502H14.0005ZM12.5005 16.502V14.001H13.0005V16.502H12.5005ZM11.0005 16.502V14.001H11.5005V16.502H11.0005ZM9.5005 16.502V14.001H10.0005V16.502H9.5005ZM8.0005 16.502V14.001H8.5005V16.502H8.0005ZM6.5005 16.502V14.001H7.0005V16.502H6.5005ZM5.0005 16.502V14.001H5.5005V16.502H5.0005ZM3.5005 16.502V14.001H4.0005V16.502H3.5005ZM19.002 22.501L5.001 22.502V19.006H19.002V22.501ZM18.999 25H18.5V23.502H18.999V25ZM17 25V23.502H17.5V25H17ZM15.5 25V23.502H16V25H15.5ZM14 25V23.502H14.5V25H14ZM12.5 25V23.502H13V25H12.5ZM11 25V23.502H11.5V25H11ZM9.5 25V23.502H10V25H9.5ZM8 25V23.502H8.5V25H8ZM6.5 25V23.502H7V25H6.5ZM5.001 25V23.502H5.5V25H5.001ZM19.283 18.006H4.708L4.2055 17.502H19.7885L19.283 18.006ZM20.0005 16.502V14.001H20.4995V16.502H20.0005ZM20.793 11.501H3.2075L2.209 10.502H21.792L20.793 11.501ZM6.5 29.5H7V31C6.7245 30.9995 6.5 30.7755 6.5 30.499V29.5ZM17.0005 30.999L17 29.5H17.5005V30.499C17.5005 30.775 17.2765 30.999 17.0005 30.999Z" fill="#484848"/>
</svg>
