<svg width="33" height="33" viewBox="0 0 33 33" fill="none" xmlns="http://www.w3.org/2000/svg">
<path d="M24.9491 21.7125C23.9037 20.6804 22.5985 20.6804 21.5597 21.7125C20.7673 22.4982 19.9749 23.284 19.1959 24.083C18.9828 24.3028 18.803 24.3494 18.5433 24.2029C18.0306 23.9232 17.4845 23.6968 16.9918 23.3905C14.6945 21.9455 12.7701 20.0877 11.0654 17.9968C10.2197 16.9581 9.46727 15.846 8.94122 14.5942C8.83468 14.3411 8.85465 14.1747 9.06108 13.9682C9.85348 13.2025 10.6259 12.4167 11.405 11.631C12.4904 10.5389 12.4904 9.26043 11.3983 8.16171C10.7791 7.53578 10.1598 6.92317 9.54051 6.29723C8.90126 5.65798 8.26867 5.01208 7.62276 4.37948C6.57732 3.36068 5.27219 3.36068 4.23341 4.38614C3.43434 5.17189 2.66858 5.97761 1.8562 6.75004C1.10375 7.46253 0.72419 8.33485 0.644284 9.35365C0.517766 11.0117 0.923956 12.5765 1.49662 14.1014C2.66858 17.2577 4.45315 20.0611 6.61728 22.6314C9.54051 26.1073 13.0298 28.8574 17.1116 30.8418C18.9495 31.7341 20.8539 32.4199 22.9248 32.5331C24.3498 32.613 25.5884 32.2535 26.5805 31.1414C27.2597 30.3823 28.0255 29.6898 28.7447 28.964C29.8101 27.8852 29.8167 26.5801 28.758 25.5147C27.4928 24.2429 26.2209 22.9777 24.9491 21.7125Z" fill="white"/>
<path d="M23.6772 16.4054L26.1343 15.9859C25.7481 13.7286 24.6827 11.6843 23.0646 10.0595C21.3532 8.3482 19.1891 7.26947 16.8052 6.93652L16.459 9.40696C18.3035 9.66665 19.9815 10.499 21.3066 11.8241C22.5585 13.076 23.3775 14.6608 23.6772 16.4054Z" fill="white"/>
<path d="M27.5192 5.72453C24.6826 2.88786 21.0934 1.09663 17.1314 0.543945L16.7852 3.01438C20.2078 3.49382 23.3108 5.04533 25.7613 7.48913C28.0852 9.81307 29.6101 12.7496 30.1628 15.9792L32.6199 15.5597C31.974 11.8174 30.2094 8.42137 27.5192 5.72453Z" fill="white"/>
</svg>
