<svg width="22" height="27" viewBox="0 0 22 27" fill="none" xmlns="http://www.w3.org/2000/svg">
<path d="M20.3237 10.2133L4.62897 1.14571C4.18034 0.88028 3.66943 0.738361 3.14817 0.734375C2.32876 0.734375 1.54292 1.05988 0.96351 1.63929C0.384102 2.2187 0.0585938 3.00455 0.0585938 3.82395V23.2846C0.058698 23.8284 0.204463 24.3622 0.480734 24.8306C0.757005 25.2989 1.15369 25.6847 1.62956 25.9478C2.10542 26.211 2.64308 26.3418 3.18663 26.3268C3.73019 26.3117 4.25979 26.1514 4.72038 25.8623L20.4334 15.9355C20.9219 15.6297 21.323 15.2026 21.5974 14.6957C21.8718 14.1889 22.0102 13.6196 21.9991 13.0433C21.9881 12.4671 21.828 11.9035 21.5343 11.4076C21.2407 10.9116 20.8236 10.5002 20.3237 10.2133Z" fill="#0082ED"/>
</svg>
