<svg width="21" height="21" viewBox="0 0 21 21" fill="none" xmlns="http://www.w3.org/2000/svg">
<path d="M7.6758 7.03973L7.56243 7.28123L7.2987 7.32151L1.33528 8.23243C1.33525 8.23244 1.33521 8.23244 1.33518 8.23245C1.25077 8.2455 1.21391 8.34946 1.27543 8.41258L5.60795 12.8534L5.78416 13.034L5.74354 13.2831L4.71938 19.5614L4.71933 19.5617C4.71477 19.5895 4.71922 19.6075 4.72505 19.6205C4.73181 19.6355 4.74425 19.6515 4.76279 19.6644C4.80008 19.6904 4.83894 19.6917 4.87467 19.6719L4.87559 19.6714L10.2025 16.7266L10.4444 16.5929L10.6863 16.7266L16.0132 19.6705L16.0143 19.6712C16.0372 19.6839 16.0551 19.6861 16.0699 19.6849C16.087 19.6836 16.1066 19.6772 16.1252 19.6641C16.1437 19.6511 16.1565 19.6347 16.1636 19.619C16.1697 19.6052 16.1738 19.5873 16.1695 19.5609L16.1694 19.5606L15.1453 13.2823L15.1047 13.0332L15.2809 12.8526L19.6135 8.41161L19.6138 8.41136C19.6746 8.34913 19.6389 8.24567 19.5538 8.23248C19.5538 8.23247 19.5537 8.23246 19.5537 8.23245L13.5901 7.32151L13.3264 7.28122L13.213 7.03968L10.5407 1.34587L10.5406 1.34577L10.5406 1.3457C10.54 1.34438 10.5378 1.33948 10.5247 1.33224C10.5083 1.32323 10.4803 1.31445 10.4448 1.31445C10.4093 1.31445 10.3813 1.32323 10.3649 1.33224C10.3518 1.33948 10.3496 1.34438 10.349 1.3457L10.349 1.34583L10.3489 1.34587L7.6758 7.03973Z" stroke="#E1981F"/>
</svg>
