<?xml version="1.0" encoding="utf-8"?>
<!-- Generator: Adobe Illustrator 24.0.1, SVG Export Plug-In . SVG Version: 6.00 Build 0)  -->
<svg version="1.1" id="Layer_1" xmlns="http://www.w3.org/2000/svg" xmlns:xlink="http://www.w3.org/1999/xlink" x="0px" y="0px"
	 viewBox="0 0 512 512" style="enable-background:new 0 0 512 512;" xml:space="preserve">
<style type="text/css">
	.st0{fill:#FFFFFF;}
</style>
<g>
	<path data-original="#000000" class="st0" d="M256,0C114.6,0,0,114.6,0,256s114.6,256,256,256c141.4,0,256-114.6,256-256
		S397.4,0,256,0z M256,76.5c46.8,0,84.7,37.9,84.7,84.6c0,46.8-37.9,84.7-84.6,84.7c0,0-0.1,0-0.1,0c-46.8,0-84.7-37.9-84.6-84.7
		C171.4,114.5,209.3,76.6,256,76.5z M255.9,445c-44.9,0.1-88.3-16-122.3-45.1c-8-6.9-12.7-16.9-12.7-27.4
		c0-47.4,38.4-85.4,85.8-85.4h98.5c47.4,0,85.7,38,85.7,85.4c0,10.6-4.6,20.6-12.7,27.4C344.2,429.1,300.8,445.1,255.9,445z"/>
</g>
</svg>
