<svg width="108" height="109" viewBox="0 0 108 109" fill="none" xmlns="http://www.w3.org/2000/svg">
<path d="M99.4396 31.5893H82.4134V8.00162C82.3155 6.04927 81.4495 4.21485 80.0042 2.89862C78.5589 1.58239 76.6517 0.89119 74.6988 0.975821H8.49195C6.53898 0.89119 4.63179 1.58239 3.18652 2.89862C1.74125 4.21485 0.875205 6.04927 0.777344 8.00162V90.8928C0.875205 92.8451 1.74125 94.6796 3.18652 95.9958C4.63179 97.312 6.53898 98.0032 8.49195 97.9186H74.6988C76.6517 98.0032 78.5589 97.312 80.0042 95.9958C81.4495 94.6796 82.3155 92.8451 82.4134 90.8928V87.7141H87.5156V103.021H79.8622C79.1856 103.021 78.5367 103.29 78.0583 103.768C77.5799 104.246 77.3111 104.895 77.3111 105.572C77.3111 106.249 77.5799 106.897 78.0583 107.376C78.5367 107.854 79.1856 108.123 79.8622 108.123H100.271C100.948 108.123 101.597 107.854 102.075 107.376C102.554 106.897 102.822 106.249 102.822 105.572C102.822 104.895 102.554 104.246 102.075 103.768C101.597 103.29 100.948 103.021 100.271 103.021H92.6179V87.7141H99.4396C101.689 87.7114 103.846 86.8166 105.436 85.2259C107.027 83.6352 107.922 81.4786 107.925 79.229V40.0744C107.922 37.8248 107.027 35.6682 105.436 34.0775C103.846 32.4869 101.689 31.592 99.4396 31.5893ZM74.6988 92.8163H8.49195C7.07352 92.8163 5.87959 91.9337 5.87959 90.8928V8.00162C5.87959 6.98117 7.07352 6.07807 8.49195 6.07807H74.6988C76.1172 6.07807 77.3111 6.96076 77.3111 8.00162V32.3036C75.7968 32.962 74.5074 34.0478 73.6011 35.4281C72.6948 36.8084 72.211 38.4231 72.2089 40.0744V79.229C72.211 80.8803 72.6948 82.495 73.6011 83.8753C74.5074 85.2556 75.7968 86.3415 77.3111 86.9998V90.8928C77.3111 91.9337 76.1172 92.8163 74.6988 92.8163ZM99.4396 82.6118H80.6939C79.7971 82.6105 78.9375 82.2537 78.3034 81.6196C77.6693 80.9855 77.3125 80.1258 77.3111 79.229V72.4073H81.9491C82.6257 72.4073 83.2746 72.1386 83.753 71.6601C84.2314 71.1817 84.5002 70.5328 84.5002 69.8562C84.5002 69.1796 84.2314 68.5307 83.753 68.0523C83.2746 67.5739 82.6257 67.3051 81.9491 67.3051H77.3111V62.2028H81.9491C82.6257 62.2028 83.2746 61.9341 83.753 61.4556C84.2314 60.9772 84.5002 60.3283 84.5002 59.6517C84.5002 58.9751 84.2314 58.3262 83.753 57.8478C83.2746 57.3694 82.6257 57.1006 81.9491 57.1006H77.3111V51.9983H81.9491C82.6257 51.9983 83.2746 51.7296 83.753 51.2511C84.2314 50.7727 84.5002 50.1238 84.5002 49.4472C84.5002 48.7706 84.2314 48.1217 83.753 47.6433C83.2746 47.1649 82.6257 46.8961 81.9491 46.8961H77.3111V40.0744C77.3125 39.1776 77.6693 38.318 78.3034 37.6839C78.9375 37.0498 79.7971 36.6929 80.6939 36.6916H99.4396C100.336 36.6929 101.196 37.0498 101.83 37.6839C102.464 38.318 102.821 39.1776 102.822 40.0744V46.8961H98.1844C97.5078 46.8961 96.8589 47.1649 96.3805 47.6433C95.9021 48.1217 95.6333 48.7706 95.6333 49.4472C95.6333 50.1238 95.9021 50.7727 96.3805 51.2511C96.8589 51.7296 97.5078 51.9983 98.1844 51.9983H102.822V57.1006H98.1844C97.5078 57.1006 96.8589 57.3694 96.3805 57.8478C95.9021 58.3262 95.6333 58.9751 95.6333 59.6517C95.6333 60.3283 95.9021 60.9772 96.3805 61.4556C96.8589 61.9341 97.5078 62.2028 98.1844 62.2028H102.822V67.3051H98.1844C97.5078 67.3051 96.8589 67.5739 96.3805 68.0523C95.9021 68.5307 95.6333 69.1796 95.6333 69.8562C95.6333 70.5328 95.9021 71.1817 96.3805 71.6601C96.8589 72.1386 97.5078 72.4073 98.1844 72.4073H102.822V79.229C102.821 80.1258 102.464 80.9855 101.83 81.6196C101.196 82.2537 100.336 82.6105 99.4396 82.6118Z" fill="white"/>
<path d="M35.1139 51.4064C35.9049 51.8379 36.7994 52.0432 37.6994 52C38.5993 51.9568 39.4701 51.6667 40.2161 51.1615L52.6452 42.8704C53.3241 42.421 53.881 41.8104 54.2664 41.0933C54.6517 40.3761 54.8533 39.5746 54.8533 38.7605C54.8533 37.9464 54.6517 37.1449 54.2664 36.4278C53.881 35.7106 53.3241 35.1 52.6452 34.6507L40.1906 26.3595C39.4462 25.8652 38.5818 25.5819 37.6892 25.5398C36.7967 25.4976 35.9094 25.6981 35.1217 26.1199C34.334 26.5418 33.6753 27.1692 33.2157 27.9355C32.7562 28.7018 32.5129 29.5784 32.5117 30.4719V47.0593C32.5113 47.9516 32.7532 48.8272 33.2115 49.5928C33.6698 50.3584 34.3273 50.9852 35.1139 51.4064ZM49.793 38.6253L37.6089 47.0542L37.5221 30.727L49.793 38.6253Z" fill="white"/>
<path d="M41.5851 62.2028C46.1262 62.2028 50.5653 60.8562 54.3411 58.3333C58.1169 55.8104 61.0597 52.2246 62.7975 48.0291C64.5353 43.8337 64.99 39.2172 64.1041 34.7634C63.2182 30.3095 61.0314 26.2184 57.8204 23.0074C54.6094 19.7964 50.5183 17.6096 46.0644 16.7237C41.6106 15.8378 36.9941 16.2925 32.7987 18.0303C28.6033 19.7681 25.0174 22.7109 22.4945 26.4867C19.9716 30.2625 18.625 34.7016 18.625 39.2427C18.6318 45.33 21.0529 51.1661 25.3573 55.4705C29.6617 59.7749 35.4978 62.1961 41.5851 62.2028ZM41.5851 21.3848C45.1171 21.3848 48.5697 22.4321 51.5064 24.3944C54.4432 26.3566 56.732 29.1457 58.0837 32.4088C59.4353 35.6719 59.7889 39.2625 59.0999 42.7266C58.4108 46.1907 56.71 49.3726 54.2126 51.8701C51.7151 54.3676 48.5331 56.0684 45.069 56.7574C41.6049 57.4465 38.0143 57.0928 34.7512 55.7412C31.4881 54.3896 28.6991 52.1007 26.7368 49.164C24.7746 46.2273 23.7273 42.7746 23.7273 39.2427C23.7273 34.5065 25.6087 29.9642 28.9577 26.6152C32.3067 23.2662 36.8489 21.3848 41.5851 21.3848Z" fill="white"/>
<path d="M64.5534 75.6932H36.0216C35.5021 74.202 34.5314 72.9094 33.2441 71.9947C31.9568 71.08 30.4168 70.5886 28.8377 70.5886C27.2585 70.5886 25.7185 71.08 24.4312 71.9947C23.1439 72.9094 22.1732 74.202 21.6537 75.6932H18.6332C17.9566 75.6932 17.3077 75.962 16.8292 76.4404C16.3508 76.9189 16.082 77.5677 16.082 78.2443C16.082 78.9209 16.3508 79.5698 16.8292 80.0483C17.3077 80.5267 17.9566 80.7955 18.6332 80.7955H21.6537C22.1732 82.2867 23.1439 83.5793 24.4312 84.494C25.7185 85.4087 27.2585 85.9001 28.8377 85.9001C30.4168 85.9001 31.9568 85.4087 33.2441 84.494C34.5314 83.5793 35.5021 82.2867 36.0216 80.7955H64.5534C65.23 80.7955 65.8789 80.5267 66.3573 80.0483C66.8358 79.5698 67.1045 78.9209 67.1045 78.2443C67.1045 77.5677 66.8358 76.9189 66.3573 76.4404C65.8789 75.962 65.23 75.6932 64.5534 75.6932ZM28.8377 80.7955C28.3331 80.7955 27.8399 80.6458 27.4203 80.3655C27.0008 80.0852 26.6738 79.6868 26.4807 79.2206C26.2876 78.7545 26.2371 78.2415 26.3356 77.7466C26.434 77.2518 26.677 76.7972 27.0337 76.4404C27.3905 76.0837 27.8451 75.8407 28.34 75.7422C28.8348 75.6438 29.3478 75.6943 29.8139 75.8874C30.2801 76.0805 30.6785 76.4075 30.9588 76.827C31.2392 77.2465 31.3888 77.7398 31.3888 78.2443C31.3888 78.9209 31.12 79.5698 30.6416 80.0483C30.1631 80.5267 29.5143 80.7955 28.8377 80.7955Z" fill="white"/>
</svg>
