<svg width="34" height="34" viewBox="0 0 34 34" fill="none" xmlns="http://www.w3.org/2000/svg">
<path d="M14.6406 14.2574L19.3559 16.9931L14.6406 19.7422L14.6406 14.2574Z" fill="white"/>
<path d="M17.0001 34C13.6378 34 10.351 33.003 7.55534 31.135C4.7597 29.267 2.58076 26.6119 1.29406 23.5056C0.0073682 20.3992 -0.329289 16.9811 0.326663 13.6834C0.982615 10.3857 2.60171 7.35657 4.97922 4.97907C7.35672 2.60157 10.3858 0.982466 13.6835 0.326514C16.9812 -0.329434 20.3994 0.00722479 23.5057 1.29392C26.6121 2.58061 29.2671 4.75956 31.1351 7.5552C33.0031 10.3509 34.0001 13.6376 34.0001 16.9999C34.0001 21.5086 32.2091 25.8327 29.0209 29.0208C25.8328 32.2089 21.5088 34 17.0001 34V34ZM25.9475 13.9914C25.9478 13.5467 25.8605 13.1064 25.6905 12.6955C25.5206 12.2847 25.2713 11.9113 24.957 11.5968C24.6427 11.2823 24.2695 11.0328 23.8588 10.8626C23.448 10.6924 23.0078 10.6048 22.5631 10.6048L11.437 10.6048C10.9924 10.6048 10.5521 10.6924 10.1414 10.8626C9.73062 11.0328 9.35744 11.2823 9.04314 11.5968C8.72884 11.9113 8.4796 12.2847 8.30965 12.6955C8.1397 13.1064 8.05238 13.5467 8.05267 13.9914L8.05267 20.0085C8.05238 20.4531 8.1397 20.8935 8.30965 21.3043C8.4796 21.7152 8.72884 22.0885 9.04314 22.403C9.35743 22.7175 9.73062 22.967 10.1414 23.1373C10.5521 23.3075 10.9924 23.3951 11.437 23.3951L22.5631 23.3951C23.0078 23.3951 23.448 23.3075 23.8588 23.1373C24.2695 22.967 24.6427 22.7176 24.957 22.403C25.2713 22.0885 25.5206 21.7152 25.6905 21.3043C25.8605 20.8935 25.9478 20.4531 25.9475 20.0085L25.9475 13.9914Z" fill="url(#paint0_linear_89_11376)"/>
<defs>
<linearGradient id="paint0_linear_89_11376" x1="-1.3018" y1="14.3503" x2="35.4551" y2="14.3503" gradientUnits="userSpaceOnUse">
<stop offset="0.507" stop-color="#0083EF"/>
<stop offset="1" stop-color="#008AFB"/>
</linearGradient>
</defs>
</svg>
